<svg width="69" height="54" viewBox="0 0 69 54" fill="none" xmlns="http://www.w3.org/2000/svg">
<path opacity="0.2" d="M67.6997 33.3759C63.162 47.4218 44.7265 55.9691 26.5235 52.4673C8.329 48.9654 -2.7478 34.7385 1.791 20.6934C6.32662 6.64591 24.7611 -1.90304 42.9587 1.5988C61.1607 5.10064 72.2364 19.3292 67.6987 33.3759H67.6997Z" fill="#F7931A"/>
<path fill-rule="evenodd" clip-rule="evenodd" d="M44.9766 23.987C45.4347 21.6203 43.0997 20.348 39.9068 19.4992L40.9425 16.2932L38.413 15.8069L37.4047 18.9284C36.7406 18.8006 36.0578 18.6799 35.3793 18.5604L36.3949 15.4184L33.8675 14.932L32.8311 18.1369C32.2808 18.0402 31.7407 17.9446 31.2163 17.844L31.2192 17.834L27.7318 17.162L27.059 19.2463C27.059 19.2463 28.9353 19.5782 28.8957 19.5987C29.9199 19.796 30.1057 20.3191 30.074 20.7337L28.8942 24.386C28.9648 24.3999 29.0563 24.42 29.1571 24.4511L28.8906 24.3999L27.2362 29.5163C27.1109 29.7564 26.7933 30.1166 26.0773 29.9799C26.1026 30.0082 24.2393 29.6258 24.2393 29.6258L22.9839 31.8602L26.2754 32.4933C26.647 32.5652 27.014 32.6391 27.377 32.7122L27.3776 32.7123C27.6125 32.7596 27.8458 32.8065 28.0775 32.8524L27.031 36.0956L29.5569 36.582L30.594 33.3737C31.2833 33.5183 31.9531 33.6517 32.6086 33.7773L31.5757 36.9705L34.1045 37.4568L35.151 34.2203C39.4631 34.85 42.7064 34.596 44.0699 31.5868C45.1697 29.1634 44.0158 27.7655 41.7471 26.8534C43.3993 26.5582 44.6439 25.7195 44.9759 23.987H44.9766ZM39.1981 30.2394C38.4802 32.4637 33.9679 31.5434 31.9051 31.1227C31.7204 31.085 31.5553 31.0513 31.4144 31.0243L32.803 26.7283C32.9753 26.7615 33.1858 26.7979 33.4242 26.8392C35.5582 27.2088 39.9316 27.9661 39.1988 30.2394H39.1981ZM33.8531 24.8457C35.5743 25.2001 39.326 25.9725 39.9796 23.9519C40.6477 21.8849 36.9996 21.2619 35.2179 20.9576C35.0176 20.9234 34.8409 20.8932 34.6966 20.8654L33.4376 24.7618C33.5567 24.7847 33.6965 24.8135 33.8531 24.8457Z" fill="#F7931A"/>
</svg>
